<?xml version="1.0" encoding="utf-8"?>
<!-- Generator: Adobe Illustrator 23.0.0, SVG Export Plug-In . SVG Version: 6.00 Build 0)  -->
<svg version="1.1" id="Layer_1" xmlns="http://www.w3.org/2000/svg" xmlns:xlink="http://www.w3.org/1999/xlink" x="0px" y="0px"
	 viewBox="0 0 1480.6 724.8" style="enable-background:new 0 0 1480.6 724.8;" xml:space="preserve">
<style type="text/css">
	.st0{opacity:0.83;fill:#F40F0F;enable-background:new    ;}
</style>
<image style="overflow:visible;enable-background:new    ;" width="2500" height="1219" xlink:href="AD117ECC.png"  transform="matrix(0.5891 0 0 0.5891 5.057 3.5914)">
</image>
<path class="st0" d="M10.6,608.3l-2.9,74l27.4,0.4l0-1.7l-0.9-0.3l0.4-9.1l4.6-0.1v2.3l114.3-0.5l-1.4,37.2l5.8,7.4v3l129.5,0.4
	l0.4-27.8l-5.6-19.9H393v-3.8h5l-0.1,11.3l4.4,13.2h28.8v-85.3c0,0-31.2-0.5-31.5-0.5s-4.9,0.1-4.9,0.1l-0.1-2.5l-154.8,0l1.6-51.9
	l-31.4-0.3l-1.4,52.2L42,606.4v3.7l-5-0.4l-0.1-1.6L10.6,608.3z"/>
<path class="st0" d="M15.1,526l-3.9,79.2c0,0,26,1.7,26,1s0.6-17,0.6-17l5.2,0.7l-0.6,11.7l55-1v-4l14.6,0.6l3,4.3l89.5,0.7
	l1.3-52.2l-3.5-6.9l0.4-17L15.1,526L15.1,526z"/>
<polygon class="st0" points="19.4,452.1 16.4,523.4 40.8,523.7 41.2,514.7 45.8,514.9 46,517.3 77.1,517 79.4,521.4 124.8,521.8 
	125.1,517.1 161.6,517.2 161.6,521.5 203.2,521.6 203.1,520 207.3,519.5 203.3,512.3 204.3,489.3 207.2,489.3 207.8,488.4 
	209.3,449.7 48.5,449.9 48.5,454 43.5,454 43.6,452.4 "/>
<path class="st0" d="M19.8,381c0,0-0.8,68.6-0.2,68.6s24.2,1,24.2,0.7s0.3-10.4,0.3-10.4h4.8c0,0,3.5,6.2,3.5,5.8
	s156.7-0.3,156.7-0.3l1.7-45.5l-3.4-7.7l0.5-17l-41.9,0.3l-0.2,1.8l-114.5,0.3l-0.1,2.3c0,0-4.1,0-4.2-0.1s-0.1,2-0.1,2L19.8,381z"
	/>
<polygon class="st0" points="215.3,263 211.6,369.9 51.8,371 28.6,370.6 22.1,359 26.3,264.1 56.6,263.7 57.9,262.8 "/>
<path class="st0" d="M51.5,262.8l-25.4-0.3c0,0-3.1-40.5,24-97.4l-2-4.8c0,0,16.7-37.3,58.9-79.3l4.1,2.5l102.8,96.9l-0.4,17.3
	l3.7,8.9l-1.9,52.4l-163.7,2.7L51.5,262.8z"/>
<path class="st0" d="M218.7,178l-3.9-9.3l-24.5-23.4l-3,3.3l-76-71.6c0,0,34.2-29,87.4-52.6l1.1,0.9c0,0,31.2-16.6,96.9-19.6
	l-1.2,24.2l-4,0.1l-3.2,106.3l2.3,0.6l-1.2,40.7L218.7,178z"/>
<polygon class="st0" points="298.5,5.3 294.8,177.6 405.9,177.9 408.8,29 412.2,29.3 412.3,8.8 312,9.1 308.5,5.3 "/>
<polygon class="st0" points="415.1,9.1 410.5,177.6 506.9,177.9 510.9,9.4 "/>
<path class="st0" d="M513.2,9.4c0,0-2.3,168.2-1.4,168.2c0.9,0,92,0.3,92,0.3l4.6-169.1L513.2,9.4z"/>
<polygon class="st0" points="610.7,9.1 608.4,177.3 704.5,177.9 706.2,8.8 "/>
<polygon class="st0" points="708.8,8.8 710,178.5 801.7,177.9 803.8,8.6 "/>
<path class="st0" d="M806.6,8.8l0.2,168.8l96.9,0.3l-3.3-148.7l-8.8-0.4c0,0,0.1-19.9-0.3-19.9S806.6,8.8,806.6,8.8z"/>
<path class="st0" d="M906.7,29.3l1.4,148.4c0,0,92.2,0.6,92.2,0.1S999.8,4.8,999.8,4.8l-87,0.3l-2.7,24.4L906.7,29.3z"/>
<polygon class="st0" points="1002.8,4.9 1005.1,177.9 1099.2,177.9 1097.3,28.7 1090.5,28.7 1089.9,5.1 "/>
<polygon class="st0" points="1104.1,29.3 1104.4,177.3 1198.7,177.9 1195.3,9 1111.2,8.9 1105.6,29.5 "/>
<path class="st0" d="M1197.9,8.7l5.5,168.9l47.3,0.3l-0.4-22l47,0.1L1294,29c0,0,1.9,0.5,1.9,0.2s-0.3-21.1-0.3-21.1L1197.9,8.7z"/>
<polygon class="st0" points="1300.4,3.5 1302.2,156.8 1304.1,157.5 1304.7,179.5 1300.6,188.2 1303,188.8 1303,199.4 1466.8,199 
	1467,196.9 1469.2,196.9 1462.2,9 1437,8.7 1437,3.5 1421.7,3.7 1421.1,4.9 "/>
<polygon class="st0" points="1303,204 1310.4,398.3 1315.6,399.5 1315.9,403.5 1306.3,421.7 1467,421.4 1476,406.4 1470,202.8 "/>
<polygon class="st0" points="1301.9,245.1 1306.5,403.2 1297.5,420.5 1198.9,420.8 1207.5,405.5 1204.9,220.6 1257,221 
	1257.6,242.8 "/>
<polygon class="st0" points="1104.8,225.2 1109.6,373.2 1097.2,394.2 1097.2,421.2 1196.3,421.5 1204.1,405 1201.5,220.7 
	1104.8,221.1 "/>
<path class="st0" d="M808.1,225.4c-0.2,0.6,0,180.9,0,180.9l-2.4,15.8l101.7-0.2l-2.1-196.4L808.1,225.4z"/>
<polygon class="st0" points="803.5,221.3 804.5,407.3 803.3,421.4 707.2,422 707.8,376.8 710.3,376.8 711,221 "/>
<polygon class="st0" points="706.2,220.9 704.8,421.7 607.8,422 608.7,221.7 "/>
<polygon class="st0" points="604.4,220.9 605.5,421.7 505.4,421.4 505.4,395.5 465.4,395.5 466,221.3 "/>
<path class="st0" d="M259,527.3c0,0,0.3,22.2-0.6,22.8s-9.8-0.3-9.8-0.3l-2.9,51.9l155.9,0.1c0,0-0.2,4.3,0.1,4.3
	c0.3,0,32.8-0.8,32.8-0.8s2.3-79,1.1-79s-175.2-0.6-175.2-0.6L259,527.3z"/>
<polygon class="st0" points="264.8,377.3 260.7,521.6 436,524.5 438.3,394.8 434.2,377.1 "/>
</svg>
