<?xml version="1.0" encoding="utf-8"?>
<!-- Generator: Adobe Illustrator 22.0.1, SVG Export Plug-In . SVG Version: 6.00 Build 0)  -->
<svg version="1.1" xmlns="http://www.w3.org/2000/svg" xmlns:xlink="http://www.w3.org/1999/xlink" x="0px" y="0px"
	 viewBox="0 0 1920 1080" style="enable-background:new 0 0 1920 1080;" xml:space="preserve">
<style type="text/css">
	.st0{opacity:0.39;fill:#2B2629;}
	.st1{opacity:0.44;fill:#E21E1E;}
	.st2{opacity:0.25;fill:#EAE400;}
	.st3{opacity:0.76;fill:#B00EE5;}
	.st4{opacity:0.57;fill:#0A0ADD;}
	.st5{opacity:0.25;fill:#EF14EF;}
	.st6{opacity:0.25;fill:#15EDB4;}
	.st7{opacity:0.42;fill:#FF00FF;}
	.st8{opacity:0.4;fill:#0000FF;}
	.st9{opacity:0.53;fill:#FF00E7;}
	.st10{opacity:0.43;fill:#38FF00;}
	.st11{opacity:0.69;fill:#BA1919;}
	.st12{opacity:0.42;fill:#BA1919;}
	.st13{opacity:0.58;fill:#F2C50A;}
	.st14{opacity:0.74;fill:#9F1AB7;}
	.st15{opacity:0.67;fill:#0ED813;}
	.st16{fill:#0F0FD6;}
	.st17{fill:#CE11D3;}
	.st18{opacity:0.63;fill:#D13B13;}
	.st19{opacity:0.74;fill:#15CE15;}
	.st20{opacity:0.35;fill:#CC17AA;}
	.st21{opacity:0.94;fill:#173ACC;}
	.st22{opacity:0.65;fill:#BA19CC;}
	.st23{opacity:0.65;fill:#1B2DCC;}
	.st24{opacity:0.56;fill:#BA1919;}
	.st25{opacity:0.4;fill:#FFFFFF;}
	.st26{fill:#FFFFFF;}
	.st27{font-family:'MyriadPro-Regular';}
	.st28{font-size:16px;}
</style>
<g id="Layer_1">
	
		<image style="overflow:visible;" width="9496" height="5776" xlink:href="1EA82DE3.jpg"  transform="matrix(0.2542 0 0 0.2542 -493.4042 -76.1467)">
	</image>
	<path class="st0" d="M88.2,890.3l0,37.5l20,1l14-2l134,7l80-12v-11l164-22c0,0,10.6-1.3,10.6-4.7v-18.2c0,0-0.8,1.1-14.4,2.9
		l-113,14.3l-3.6-0.3l0.1,0.9l-37.7,4.6l-5.4-0.1l0,0.7l-41.1,5.2l-39.6,4.9L88.2,890.3z"/>
	<path class="st1" d="M88.5,862.3l-0.1,25.6l167.1,8.4l81.1-10l0.1,1.8l5.3,0l37.9-4.5v-1l3.5,0.4l118-15c0,0,9.3-1.1,10.5-3.2
		l0-12.5l-1-0.7v-13c0,0-3.5,1.7-15.8,2.5l-69.6,8l-41.9,4.4l-3.6,0v0.5l-37.9,4.1l-5.3,0l-0.1,0.5l-41,4.5l-39.6,4.4l-98.6-3.5
		l0-0.5l-67.9-1.4l-0.9,0L88.5,862.3z"/>
	<path class="st2" d="M117.9,831.6c0,0,0.2,16.1,0,16.1c-0.1,0-6.4,1.1-6.4,1.1v10.2l46,2.1l50.5,2.1l47.8,1.8l80.9-8.6l0,1.8l5.3,0
		l37.9-4.1l3.6-0.5L497.8,841c0,0,12.4-0.9,14-2.9l0-12.2l-1-1.1l-0.1-13.1c0,0-3.6,1-10.7,1.7l-70.2,6.5l-46.4,4.2l-3.5-0.1
		l-0.1,0.8l-37.9,3.5l-5.2-0.1l0,0.4l-80.6,7.8L117.9,831.6z"/>
	<path class="st3" d="M118,801.2l0.2,16.3l-6.5,1.3l0.3,10.1l-0.7,0.3v2.3l97.3,3.5l47.7,1.5l80.6-7.8l0-0.4l43.2-3.4l0.1-0.8l3,0.1
		l114.6-10.5c0,0,12.8-1,14.2-2.7l0-12.2l-0.9-0.8l-0.1-13.5c0,0-4,1.3-12,1.5L384.2,795l-4.2-0.1l-0.1,0.4l-37.9,3l-5.4-0.1v0.5
		l-41,3.1l-39.9,3.2L118,801.2z"/>
	<path class="st4" d="M118.1,770.9c0,0.2,0.2,16.7,0,16.7s-6.4,0.5-6.4,0.5s0.2,10.2,0,10.3c-0.2,0.1-0.6,0.2-0.6,0.2l0.1,2.3
		l46.3,1.3l50.8,1.5l47.4,1.4l81.1-6.3v-0.5l5.4,0.1l37.9-3l0.1-0.4l4.2,0.1l113.5-9c0,0,12.7-0.6,14.1-2.3l0-12l-1-1l-0.1-13.6
		c0,0-5.2,1-17.1,1.6l-107.9,6.8l-5.8,0.1l0,0.5l-123.8,7.7l-98.6-2.3l-3.3-0.3L118.1,770.9z"/>
	<path class="st5" d="M118.1,740.1l0,16.9l-6.4,0.4v10.4l-0.5,0.1l-0.1,2.4l43.3,1l3.1,0.2l98.6,2.3l80.6-5.1l10.5-0.6l32.8-2l0-0.5
		l113.6-6.9c0,0,17.3-0.9,18.2-2.2l0-11.8l-1-0.9l-0.1-13.8c0,0-8.4,1.1-18.4,1.2l-20.8,0.9l-88.1,4.3l-3.5,0v0.3l-38,1.7h-5.2
		l-0.1,0.3l-80.6,3.7L118.1,740.1z"/>
	<path class="st6" d="M118,709.8c0,0,0.4,16.7,0.1,16.8s-6.6,0.5-6.6,0.5v10.4h-0.4l0.1,2.3l144.9,2.7l80.7-4l163.9-7.6
		c0,0,10.9-0.6,11.2-1.3c0,0,0.1-12.1,0-12.1s-0.9-0.4-0.9-0.4l-0.1-14.3l-32.7,1.3l-182.3,5.8l-39.7,1.4L118,709.8z"/>
	<polygon class="st7" points="118.1,679.1 118.1,696.5 111.6,696.8 111.7,706.9 111.1,707.3 111.1,709.6 208,710.5 256.2,711.2 
		336.8,708.5 342.1,708.4 380,707.2 478.6,704 506.4,702.9 511.9,702.6 511.9,690.4 510.9,690.2 510.9,675.8 479.5,676.2 
		383.5,677.9 379.9,677.9 342,678.4 336.7,678.4 256,680.1 	"/>
	<polygon class="st8" points="118.1,648.6 118.2,666.2 111.8,666.5 111.8,676.4 111.1,676.8 111.2,679 157.7,679.4 256,680.1 
		484.6,675.9 510.9,675.8 511.9,675.5 511.8,663.3 510.8,663.2 510.8,648.5 429.8,648.5 383.5,648.5 380,648.4 256.1,648.5 	"/>
	<polygon class="st9" points="118,618.5 118.2,635.8 111.5,635.8 111.6,646.2 111.1,646.2 111.1,648.6 156.2,648.6 256.1,648.5 
		336.9,648.5 505.1,648.5 511.9,648.5 511.9,636.3 510.7,635.9 510.8,621.4 383.4,619.3 379.9,619.2 342,618.7 336.5,618.5 
		255.7,617.3 	"/>
	<polygon class="st10" points="118.1,587.9 118.1,605.1 111.6,605.4 111.8,615.6 111.2,615.9 111.2,618.3 255.7,617.3 510.8,621.4 
		512,621.3 511.8,609.2 510.5,608.6 510.8,594.1 406.5,590.8 383.6,590.1 342,589 255.9,586.1 	"/>
	<path class="st11" d="M118.1,557.5l0,17.3l-6.6,0.1l-0.1,12.8l45.6-0.5l99-1.2l254.7,8c0,0,0,0.5,0,0.5c0,0,1,0,1,0l0-12
		c0,0-0.1-0.7-1.2-1.1l0.2-14.6c0,0-0.8-0.4-6.2-0.4l-121.3-5.7l-3.6-0.2l-37.7-1.8l-86.3-4L118.1,557.5z"/>
	<path class="st12" d="M118.1,527c0,0,0.1,17.3,0,17.3s-6.6,0.1-6.6,0.1l0.1,10.5h-0.4l0,2.4l7,0.2l138.1-2.7l248.4,11.7
		c0,0,6.2,0.1,6.2,1c0,0,0.7,0.3,1-0.3l-0.1-12.2l-0.9-0.5l-0.1-14.5c0,0,0.7-0.6-14.3-1.4l-43.8-2.6l-69.4-4.1l-9.1-0.5l-117.8-7.9
		L118.1,527z"/>
	<path class="st13" d="M118.4,496.5l-0.5,16.1l-8.2,0.5l-0.1,13.8l8.5,0.1l138.3-3.6l234.3,14.8c0,0,19.9,1.2,20.1,2.4
		c0,0,0.9,0.1,1-0.4l0-12l-1.2-0.9l0-14.6c0,0-4.1-1.1-13.9-1.6l-113.3-8.7l-127.2-10.2L118.4,496.5z"/>
	<path class="st14" d="M135,467.9l-0.1,13.7l-25.1,1l0,13.7l8.7-0.1l137.8-4l127.2,10.2l115,8.7c0,0,13.1,1.2,13.3,1.5l0.1-11.8
		l-1.1-0.5l0-14.3c0,0,0.3-0.7-14.3-2.4L366,470.9l-83.6-7.6c0,0-16.6-1.7-29.8-1.7l-116.4,3.5c0,0-16.5,0.9-6.3,2.3L135,467.9z"/>
	<path class="st15" d="M135,438l0.1,13.2c0,0-9,0.7-8.9,3.1l0.2,12.3c0,0,1-1.1,9.9-1.4l100-3.1c0,0,14.6-1,44.2,0.9l216,20.6
		c0,0,12.5,1.3,14.3,2.4l0,1l0.6-0.1l0.5-0.5l0.1-12.2l-0.7-0.8l-0.3,0l-0.2-14.5c0,0-0.3-1.4-15.1-2.7l-158.2-17.5l-56.9-6.5
		c0,0-10.9-1.1-19.7-1.1l-96.5,2.3c0,0-34.1,0.8-37.9,2.8C126.4,436.1,123.9,437,135,438z"/>
	<path class="st16" d="M135,407.8l0.2,12.9c0,0-9,0.7-9,2.1l0.2,13.3c0,0,6.7-2.3,29.2-2.5l91-2.2c0,0,27.1-1.2,38,1.2l179.5,20
		c0,0,46,4.6,46.7,6.3l0.1,1.1c0,0,0.8,0.2,1-0.8c0.2-0.9,0-12.3,0-12.3l-1-0.2l-0.1-14.7c0,0-0.4-2.3-19.6-4.1l-197.1-25.1
		c0,0-28.8-4.4-57.7-2.8l-78.2,3.1l-21.9,1c0,0-14.9,0.9-8.3,2.9L135,407.8z"/>
	<path class="st17" d="M135,377.9l0.1,12.1c0,0-8.9,0.6-8.9,3.7c0.1,3.2,0.1,12.2,0.1,12.2s0.2-2,21.9-2.4l90.6-3.7
		c0,0,29.7-1.2,55.3,2.9l64,8.2l138.8,17.5c0,0,12.3,1.5,13.9,3.5l0,1c0,0,0.9,0.1,1.1-0.8l-0.3-11.5l-0.9-0.5l0.2-15.4
		c0,0,0.1-1.7-13.4-3.4L354.6,381l-61.5-8.8c0,0-22.7-4.1-39.6-3.8c0,0-25.4-0.4-39.1,0.9l-65.1,3.1c0,0-29.6,0.7-21.4,3.9
		L135,377.9z"/>
	<path class="st18" d="M137.5,348.1c0,0.6,0,11.1,0,11.1s-11.1,0.9-11.3,3.6l0.2,12.5c0,0,0.2-2,10.1-2.3l92.3-4.7
		c0,0,37.7-1.8,62.6,3.3l208.8,29.8c0,0,10,1.3,10.7,3.2l0-27.2c0,0,0.7-2.1-16.4-4L284,340c0,0-22.1-4.4-65.9-1.6l-66,3.8
		c0,0-31.4,1.3-20.8,4.7C131.4,347,137.5,348.1,137.5,348.1z"/>
	<path class="st19" d="M142.5,318.5l-0.2,10.3c0,0-13.2,0.7-13.3,3.8l0.1,12.8c0,0,0.5-2.2,24.7-3.4l85.4-4.5c0,0,34,0.1,42.2,2.1
		l216.3,34.1c0,0,12.3,1.4,13.2,3.9l0.1-26.9c0,0-1.5-2.8-14.6-4.5l-195-34.1c0,0-27.7-6.7-66.1-4.5l-81.3,4.9
		c0,0-31.2,1.6-17.4,5.1l4.9,0.8L142.5,318.5z"/>
	<path class="st20" d="M146.5,289.4l0.1,9.4c0,0-0.1,0.5-0.3,0.5c-0.2,0-4.1,0.2-4.1,0.2s-10.3,0.8-9.3,4.1l0.2,12.1
		c0,0,1.5-2.9,28.9-3.8l77.9-4.8c0,0,30.4-1,54.2,3.4l202.6,35.6c0,0,11.4,1.1,14.2,4.5l-0.2-27.3c0,0-0.8-2.8-14.1-4.6L397.9,300
		l-104.2-19.8c0,0-0.2-1.6-26.4-2.8c0,0-18.7-1.1-44.8,1.1l-62.7,4.4c0,0-29.9,1.5-18.2,5.5L146.5,289.4z"/>
	<path class="st21" d="M153.6,261l-0.1,8.3c0,0-15.4,1-15.1,4.8l0.2,12.5c0,0-2.1-2,18-3.6l81.9-5.7c0,0,44.2-0.8,56.3,2.9
		l181.7,34.3l20.2,4.1c0,0,10.1,0.9,14.1,4.6l0-27c0,0-1.2-2.6-9.7-4.2l-202.5-41.7c0,0-10.7-2.8-45.6-2.7l-38.8,2.6l-52,4
		c0,0-24.6,1.6-13,5.7L153.6,261z"/>
	<path class="st22" d="M164.1,233.1l0.4,6.9c0,0-18.6,0.5-18.7,5.6l0.3,12c0,0,1.3-3.2,23.5-4.2l65.8-5c0,0,26.7-3.9,65.5,1.8
		L501.1,292c0,0,7.5,1.1,9.8,4.4v-26.8c0,0,0.7-2.7-12-5.6L308,221.7c0,0-27.6-4.6-46.7-2.7l-87.6,6.9c0,0-25.2,1.9-14.1,6.2
		L164.1,233.1z"/>
	<path class="st23" d="M178.5,206.5l0.3,5.2c0,0-21,1.2-22.3,5.1l0.2,12.7c0,0,3-3.4,28.6-4.5c0,0,80.2-6.5,80.6-6.5
		c0.4,0,19.1-1.5,45.2,3.7c26.1,5.1,186.3,41.3,186.3,41.3s13.6,2.8,13.5,6.3l1-1.1l0-11.6l-0.9-1.6l-0.1-14c0,0-2.4-3.6-18.8-6.8
		l-170.8-40.3c0,0-23.1-4.8-49.2-2.7l-88.5,7.3c0,0-17.4,2.4-11.1,5.6C172.4,204.7,175,206.2,178.5,206.5z"/>
	<path class="st24" d="M195.4,181l0,3.3c0,0-24.6,1-24.7,6.5l0.2,12c0,0-1.2-1.5,13.7-4.1l91.9-7.5c0,0,36.9-0.5,53.6,5.3L500,236.5
		c0,0,8.7,2.6,10.9,5.1l0.1,2.7c0,0,1-0.2,1.1-2.3s-0.3-12.2-0.3-12.2l-1.2-1.7l0.2-13.3c0,0,0.1-3.4-16-6.7L338,168.7
		c0,0-13.1-4.8-51.6-3.2l-84.5,7.5c0,0-20.1,2.6-10.4,6.5l3.3,1.2L195.4,181z"/>
</g>
<g id="Layer_2">
	<rect x="524.9" y="221.9" class="st25" width="72" height="1.3"/>
	<rect x="524.9" y="249.1" class="st25" width="72" height="1.3"/>
	<rect x="524.9" y="276.3" class="st25" width="72" height="1.3"/>
	<rect x="524.9" y="303.5" class="st25" width="72" height="1.3"/>
	<rect x="524.9" y="330.7" class="st25" width="72" height="1.3"/>
	<rect x="534.9" y="357.9" class="st26" width="72" height="1.3"/>
	<rect x="524.9" y="385" class="st25" width="72" height="1.3"/>
	<rect x="524.9" y="412.2" class="st25" width="72" height="1.3"/>
	<rect x="524.9" y="439.4" class="st25" width="72" height="1.3"/>
	<rect x="524.9" y="466.6" class="st25" width="72" height="1.3"/>
	<rect x="524.9" y="493.8" class="st25" width="72" height="1.3"/>
	<rect x="524.9" y="521" class="st25" width="72" height="1.3"/>
	<rect x="524.9" y="548.2" class="st25" width="72" height="1.3"/>
	<rect x="524.9" y="575.4" class="st25" width="72" height="1.3"/>
	<rect x="524.9" y="602.5" class="st25" width="72" height="1.3"/>
	<rect x="524.9" y="629.7" class="st25" width="72" height="1.3"/>
	<rect x="524.9" y="656.9" class="st25" width="72" height="1.3"/>
	<rect x="524.9" y="684.1" class="st25" width="72" height="1.3"/>
	<rect x="524.9" y="711.3" class="st25" width="72" height="1.3"/>
	<rect x="524.9" y="738.5" class="st25" width="72" height="1.3"/>
	<rect x="524.9" y="765.7" class="st25" width="72" height="1.3"/>
	<rect x="524.9" y="792.9" class="st25" width="72" height="1.3"/>
	<rect x="524.9" y="820" class="st25" width="72" height="1.3"/>
	<rect x="524.9" y="847.2" class="st25" width="72" height="1.3"/>
	<rect x="524.9" y="874.4" class="st25" width="72" height="1.3"/>
	<text transform="matrix(1 0 0 1 617.9263 361.4487)" class="st26 st27 st28">20</text>
</g>
</svg>
